<?xml version="1.0" encoding="UTF-8" standalone="no"?>
<!DOCTYPE svg PUBLIC "-//W3C//DTD SVG 1.1//EN" "http://www.w3.org/Graphics/SVG/1.1/DTD/svg11.dtd">
<svg width="100%" height="100%" viewBox="0 0 212 212" version="1.1" xmlns="http://www.w3.org/2000/svg" xmlns:xlink="http://www.w3.org/1999/xlink" xml:space="preserve" xmlns:serif="http://www.serif.com/" style="fill-rule:evenodd;clip-rule:evenodd;stroke-linejoin:round;stroke-miterlimit:2;">
    <g transform="matrix(0.375,0,0,0.375,0,-1.27693)">
        <g id="cursor-trail-red" serif:id="cursor trail red" transform="matrix(1,0,0,1,412.081,1418.08)">
            <rect x="-412.081" y="-1414.67" width="565.063" height="565.063" style="fill:none;"/>
            <g transform="matrix(-0.0659744,0.17828,-0.17828,-0.0659744,237.885,-1320.69)">
                <path d="M845.705,1620.17L378.865,1468.49L845.705,1316.83L378.865,674.287L1312.55,977.647L1601.07,370.947L1889.59,977.647L2823.26,674.287L2356.41,1316.83L2823.26,1468.49L2356.41,1620.17L2823.26,2262.73L1889.59,1959.37L1601.07,2566.07L1312.55,1959.37L378.865,2262.73L845.705,1620.17Z" style="fill:rgb(255,71,55);"/>
                <path d="M845.705,1620.17L378.865,1468.49L845.705,1316.83L378.865,674.287L1312.55,977.647L1601.07,370.947L1889.59,977.647L2823.26,674.287L2356.41,1316.83L2823.26,1468.49L2356.41,1620.17L2823.26,2262.73L1889.59,1959.37L1601.07,2566.07L1312.55,1959.37L378.865,2262.73L845.705,1620.17ZM413.753,2237.38L1319.56,1943.08L1601.07,2535.03L1882.58,1943.08L2788.38,2237.38L2334.84,1613.16L2780.13,1468.49L2334.84,1323.83L2788.37,699.635L1882.58,993.937L1601.07,401.978L1319.56,993.937L413.755,699.635L867.269,1323.83L421.995,1468.49L867.268,1613.16L413.753,2237.38Z" style="fill:rgb(252,252,252);"/>
            </g>
        </g>
    </g>
</svg>
