<?xml version="1.0" encoding="UTF-8" standalone="no"?>
<!DOCTYPE svg PUBLIC "-//W3C//DTD SVG 1.1//EN" "http://www.w3.org/Graphics/SVG/1.1/DTD/svg11.dtd">
<svg width="100%" height="100%" viewBox="0 0 220 112" version="1.1" xmlns="http://www.w3.org/2000/svg" xmlns:xlink="http://www.w3.org/1999/xlink" xml:space="preserve" xmlns:serif="http://www.serif.com/" style="fill-rule:evenodd;clip-rule:evenodd;stroke-linecap:round;stroke-linejoin:round;stroke-miterlimit:1.5;">
    <g transform="matrix(0.375,0,0,0.375,-230.764,-101.842)">
        <g transform="matrix(0.0249052,0.0911438,-0.0911438,0.0249052,1147.01,237.523)">
            <path d="M845.705,1620.17L378.865,1468.49L845.705,1316.83L378.865,674.287L1312.55,977.647L1601.07,370.947L1889.59,977.647L2823.26,674.287L2356.41,1316.83L2823.26,1468.49L2356.41,1620.17L2823.26,2262.73L1889.59,1959.37L1601.07,2566.07L1312.55,1959.37L378.865,2262.73L845.705,1620.17Z" style="fill:rgb(24,24,24);"/>
        </g>
        <g id="coming-soon" serif:id="coming soon" transform="matrix(0.305021,0,0,0.274898,-624.29,271.579)">
            <rect x="4064.19" y="0" width="1920" height="1080" style="fill:none;"/>
            <g transform="matrix(3.27847,0,0,3.63771,2150.46,-924.4)">
                <path d="M680.916,351.166C672.536,351.223 650.263,345.093 644.101,382.444C641.146,400.359 651.793,416.39 668.439,423.744C702.382,438.739 708.445,409.542 710.965,403.453" style="fill:none;stroke:rgb(246,246,246);stroke-width:12px;"/>
            </g>
            <g transform="matrix(3.27847,0,0,3.63771,2150.46,-924.4)">
                <path d="M752.595,384.133C747.415,375.289 712.216,409.35 738.093,432.212C745.614,438.857 797.927,440.538 791.992,403.603C789.619,388.834 762.084,378.969 757.516,387.22" style="fill:none;stroke:rgb(246,246,246);stroke-width:12px;"/>
            </g>
            <g transform="matrix(3.27847,0,0,3.63771,2150.46,-924.4)">
                <path d="M812.468,388.948C812.283,411.663 812.368,411.52 812.308,434.113C812.161,426.042 806.435,392.708 828.904,382.395C834.252,379.941 834.805,381.859 836.479,387.408C839.74,398.221 836.97,414.809 836.578,417.156C836.65,415.226 833.328,399.5 852.404,389.112C855.339,387.514 872.579,379.061 871.364,426.338" style="fill:none;stroke:rgb(246,246,246);stroke-width:12px;"/>
            </g>
            <g transform="matrix(3.27847,0,0,3.63771,2150.46,-924.4)">
                <path d="M901.215,389.53C900.95,392.705 901.379,392.664 898.735,429.288" style="fill:none;stroke:rgb(246,246,246);stroke-width:12px;"/>
            </g>
            <g transform="matrix(3.27847,0,0,3.63771,2150.46,-924.4)">
                <path d="M921.695,395.648C921.695,413.477 923.422,413.413 920.388,430.874C920.691,419.119 918.004,402.139 939.861,391.499C950.418,386.361 950.172,395.181 950.245,395.589C950.728,398.289 951.423,420.699 950.299,426.613" style="fill:none;stroke:rgb(246,246,246);stroke-width:12px;"/>
            </g>
            <g transform="matrix(3.27847,0,0,3.63771,2150.46,-924.4)">
                <path d="M978.516,390.684C954.051,412.115 966.271,432.155 972.938,433.45C994.578,437.652 998.048,428.153 998.785,426.134C1003.13,414.238 987.628,415.785 986.715,415.724C992.901,414.081 992.803,414.329 999.13,414.058" style="fill:none;stroke:rgb(246,246,246);stroke-width:12px;"/>
            </g>
            <g transform="matrix(3.27847,0,0,3.63771,2248.66,-1054.66)">
                <path d="M720.44,462.981C708.837,462.024 696.801,473.872 700.18,486.087C703.114,496.692 764.752,503.515 750.735,516.005C730.834,533.736 693.918,520.351 689.293,518.674" style="fill:none;stroke:rgb(246,246,246);stroke-width:12px;"/>
            </g>
            <g transform="matrix(3.27847,0,0,3.63771,2248.66,-1054.66)">
                <path d="M787.11,492.562C772.945,492.421 734.101,534.842 785.569,538.194C800.918,539.194 814.63,527.02 814.591,511.629C814.536,490.418 790.278,490.538 786.671,492.131" style="fill:none;stroke:rgb(246,246,246);stroke-width:12px;"/>
            </g>
            <g transform="matrix(3.27847,0,0,3.63771,2248.66,-1054.66)">
                <path d="M850.604,483.735C840.193,482.915 827.792,498.342 832.107,519.83C835.273,535.598 887.352,535.73 889.044,505.548C890.513,479.336 855.446,480.025 851.033,488.294" style="fill:none;stroke:rgb(246,246,246);stroke-width:12px;"/>
            </g>
            <g transform="matrix(3.27847,0,0,3.63771,2248.66,-1054.66)">
                <path d="M909.856,488.398C909.837,488.409 909.845,488.399 909.296,529.559C909.483,529.015 915.367,497.65 937.644,495.566C949.883,494.421 951.052,501.879 956.653,521.482" style="fill:none;stroke:rgb(246,246,246);stroke-width:12px;"/>
            </g>
            <g transform="matrix(3.27847,0,0,3.63771,2248.66,-1054.66)">
                <path d="M1036.53,423.194C1026.78,453.58 1024.13,452.338 1006.21,491.819" style="fill:none;stroke:rgb(246,246,246);stroke-width:12px;"/>
            </g>
            <g transform="matrix(3.27847,0,0,3.63771,2248.66,-1054.66)">
                <path d="M994.105,519.43C994.412,531.553 1004.06,522.676 1001.55,521.609C993.33,518.119 995.157,525.007 995.303,525.015C996.869,525.096 999.871,520.618 993.783,521.149C993.546,521.17 991.537,522.465 995.518,523.562" style="fill:none;stroke:rgb(246,246,246);stroke-width:12px;"/>
            </g>
            <g transform="matrix(3.27847,0,0,3.63771,2016.26,-896.619)">
                <path d="M776.639,308.836C776.639,327.306 777.316,334.026 774.934,349.908C774.111,341.9 769.178,314.247 779.485,302.468C781.035,300.697 799.319,282.383 800.817,322.724C811.86,296.961 836.976,311.773 838.116,313.45C844.066,322.199 844.455,334.539 835.102,338.778" style="fill:none;stroke:rgb(246,246,246);stroke-width:12px;"/>
            </g>
            <g transform="matrix(3.27847,0,0,3.63771,2016.26,-896.619)">
                <path d="M876.952,319.435C862.938,320.238 833.34,352.968 886.039,351.526C907.201,350.946 911.44,316.9 884.399,315.977" style="fill:none;stroke:rgb(246,246,246);stroke-width:12px;"/>
            </g>
            <g transform="matrix(3.27847,0,0,3.63771,2016.26,-896.619)">
                <path d="M925.881,329.929C925.915,331.676 927.834,344.642 928.699,356.851C934.508,335.333 948.057,318.294 959.502,338.536" style="fill:none;stroke:rgb(246,246,246);stroke-width:12px;"/>
            </g>
            <g transform="matrix(3.27847,0,0,3.63771,2016.26,-896.619)">
                <path d="M970.685,337.546C980.91,337.546 1000.01,339.942 999.46,332.139C998.828,323.209 972.424,316.106 974.221,343.148C975.584,363.663 1022.05,360.096 1031.2,360.303" style="fill:none;stroke:rgb(246,246,246);stroke-width:12px;"/>
            </g>
        </g>
    </g>
</svg>
